<svg width="193" height="30" viewBox="0 0 193 30" fill="none" xmlns="http://www.w3.org/2000/svg">
<circle cx="137" cy="21" r="1" fill="#336CFB"/>
<path d="M141.036 1H134.964H134.675L126 29H132.361L138.145 10.9167L143.639 29H150L141.325 1H141.036Z" fill="#336CFB"/>
<path d="M12.9067 12.0588C8.50667 10.5882 7.62667 9.70588 7.62667 8.52941C7.62667 7.35294 8.50667 6.47059 10.56 6.47059C13.2 6.47059 14.3733 7.64706 15.5467 9.70588L21.12 6.47059C19.0667 2.35294 15.2533 0 10.56 0C5.57333 0 0.88 3.23529 0.88 8.82353C0.88 14.4118 4.98667 16.4706 9.38667 17.6471C13.7867 18.8235 15.2533 19.4118 15.2533 21.1765C15.2533 22.3529 14.3733 23.5294 11.44 23.5294C8.21333 23.5294 6.45333 22.0588 5.57333 19.7059L0 22.9412C1.46667 27.0588 5.28 30 11.44 30C17.6 30 22 26.7647 22 21.1765C22 14.7059 17.3067 13.2353 12.9067 12.0588Z" fill="#D31216"/>
<path d="M44 1H23V7.06186H30.2917V29H36.7083V7.06186H44V1Z" fill="#D31216"/>
<path fill-rule="evenodd" clip-rule="evenodd" d="M83.5946 1C88.9459 1 93.4054 5.3299 93.4054 10.5258C93.4054 13.9897 91.3243 17.1649 87.7568 18.6082L94 29H86.8649L81.5135 19.7629H78.5405V29H72V1H83.5946ZM78.5405 14.2784H83.5946C85.3784 14.2784 86.8649 13.1237 86.8649 10.8144C86.8649 8.50515 85.3784 7.06186 83.5946 7.06186H78.5405V14.2784Z" fill="#D31216"/>
<path d="M109.931 18.6634H117.396C116.535 21.2475 113.95 22.9703 110.218 22.9703C104.762 22.9703 101.317 19.5248 101.317 14.6436C101.317 9.76238 104.762 6.31683 109.644 6.31683C112.802 6.31683 115.386 7.75248 116.535 9.47525L121.99 6.31683C119.693 2.58416 115.099 0 109.644 0C101.317 0 95 6.60396 95 14.6436C95 22.6832 101.317 29 110.218 29C117.97 29 124 23.8317 124 15.2178V12.9208H109.931V18.6634Z" fill="#D31216"/>
<path d="M151 7.06186H158.292V29H164.708V7.06186H172V1H151V7.06186Z" fill="#D31216"/>
<path d="M181.492 22.9381V17.7423H191.82V11.6804H181.492V7.06186H192.705V1H175V29H193V22.9381H181.492Z" fill="#D31216"/>
<path d="M59.0361 1H52.9639H52.6747L44 29H50.3614L56.1446 10.9167L61.6386 29H68L59.3253 1H59.0361Z" fill="#336CFB"/>
<circle cx="55" cy="21" r="1" fill="#336CFB"/>
</svg>
